<?xml version="1.0" encoding="UTF-8"?>
<svg version="1.1" xmlns="http://www.w3.org/2000/svg" width="2084" height="2084">
<path d="M0 0 C687.72 0 1375.44 0 2084 0 C2084 687.72 2084 1375.44 2084 2084 C1396.28 2084 708.56 2084 0 2084 C0 1396.28 0 708.56 0 0 Z " fill="#020202" transform="translate(0,0)"/>
<path d="M0 0 C1.19771027 0.00149048 2.39542053 0.00298096 3.62942505 0.0045166 C20.81373325 0.04302099 37.57447088 0.54097528 54.5625 3.3125 C56.48016137 3.58420957 58.39813527 3.85372197 60.31640625 4.12109375 C124.84541441 13.64813267 200.54988706 50.62467637 240.77954102 103.48657227 C257.5519103 126.36620343 267.01771501 154.89839041 263.05859375 183.359375 C259.8667143 201.23389991 251.4529197 216.50619804 236.5625 227.3125 C215.7805025 240.56391132 192.81647244 244.4221643 168.5625 245.3125 C169.47905733 240.75127938 170.49968253 236.32449522 172.0625 231.9375 C179.20303915 211.02830441 177.27921157 186.04591626 170.5625 165.3125 C170.34319824 164.60528809 170.12389648 163.89807617 169.89794922 163.16943359 C164.63879611 146.51741848 155.67332838 131.6834798 144.5625 118.3125 C144.00433594 117.590625 143.44617187 116.86875 142.87109375 116.125 C122.37732862 90.64904134 86.29594465 77.40575478 54.90625 73.75390625 C25.84269705 71.0527707 -3.68039543 73.74900805 -27.11083984 92.60913086 C-28.56762482 93.82636492 -30.00323905 95.06880519 -31.4375 96.3125 C-32.18386719 96.94671875 -32.93023438 97.5809375 -33.69921875 98.234375 C-45.48482067 109.07064553 -52.06992969 123.95466341 -55.4375 139.3125 C-55.62183594 140.07820312 -55.80617188 140.84390625 -55.99609375 141.6328125 C-59.49605784 162.88038209 -53.17076674 182.97155837 -41.30859375 200.44921875 C-39.09711938 203.47565505 -36.7973746 206.40056247 -34.4375 209.3125 C-33.68597656 210.26769531 -32.93445312 211.22289062 -32.16015625 212.20703125 C-26.1744315 219.57334971 -19.62493164 226.33090163 -12.9375 233.0625 C-12.07157227 233.93769287 -11.20564453 234.81288574 -10.31347656 235.71459961 C-4.32901257 241.67034629 1.97085875 247.04424112 8.5625 252.3125 C10.39859142 253.87175805 12.23254964 255.43353933 14.0625 257 C22.25952794 263.83969343 30.91115109 270.06450375 39.5625 276.3125 C40.23313477 276.79912109 40.90376953 277.28574219 41.59472656 277.78710938 C62.69593696 293.06098193 84.68989777 307.14520915 106.52490234 321.33740234 C175.1706079 365.97200755 175.1706079 365.97200755 205.5625 391.3125 C206.5834375 392.14652344 207.604375 392.98054688 208.65625 393.83984375 C223.12159844 405.80694445 237.39212728 419.1704392 248.5625 434.3125 C249.15200439 435.09536377 249.15200439 435.09536377 249.75341797 435.89404297 C272.30990991 465.92037356 283.4234108 500.15963687 279.27832031 537.89990234 C278.51139078 542.5436298 277.16520426 546.88260652 275.5625 551.3125 C275.31580566 552.00875488 275.06911133 552.70500977 274.81494141 553.42236328 C264.19079714 582.89474386 241.64160943 602.09779935 214.9375 616.9375 C213.96441895 617.4833374 212.99133789 618.0291748 211.98876953 618.59155273 C211.07208496 619.08985596 210.15540039 619.58815918 209.2109375 620.1015625 C208.38770996 620.55225098 207.56448242 621.00293945 206.71630859 621.46728516 C204.5625 622.3125 204.5625 622.3125 201.5625 621.3125 C201.72331055 620.45543457 201.88412109 619.59836914 202.04980469 618.71533203 C204.63147647 601.58040761 203.25050261 582.17661847 199.5625 565.3125 C199.31886719 564.178125 199.07523438 563.04375 198.82421875 561.875 C193.1604771 540.401098 178.68921237 521.09006498 163.5625 505.3125 C161.97270174 503.54746838 160.38900842 501.77691203 158.8125 500 C152.77367989 493.2854327 146.41360862 487.18804623 139.5625 481.3125 C138.50743606 480.39366123 137.45278026 479.47435371 136.3984375 478.5546875 C119.93869138 464.24913941 102.39709217 451.0750131 83.98095703 439.3828125 C82.47489224 438.40895984 81.0130557 437.3672551 79.5625 436.3125 C79.5625 435.6525 79.5625 434.9925 79.5625 434.3125 C78.68609863 434.13352173 78.68609863 434.13352173 77.79199219 433.95092773 C74.02255372 432.87152765 71.03873857 430.54920426 67.8125 428.375 C67.11511719 427.91931641 66.41773438 427.46363281 65.69921875 426.99414062 C63.94773037 425.82362539 62.24980278 424.57377982 60.5625 423.3125 C60.5625 422.6525 60.5625 421.9925 60.5625 421.3125 C59.5725 421.3125 58.5825 421.3125 57.5625 421.3125 C57.5625 420.6525 57.5625 419.9925 57.5625 419.3125 C56.99893799 419.20993896 56.43537598 419.10737793 55.85473633 419.00170898 C53.11338076 418.17746287 51.23753907 416.91861769 48.88671875 415.28515625 C47.98381104 414.66278076 47.08090332 414.04040527 46.15063477 413.39916992 C44.71482056 412.39720581 44.71482056 412.39720581 43.25 411.375 C41.2530113 409.99680571 39.25561447 408.61920263 37.2578125 407.2421875 C36.28231445 406.56768555 35.30681641 405.89318359 34.30175781 405.19824219 C30.76565349 402.76394007 27.2027485 400.37252001 23.625 398 C23.03493164 397.60828613 22.44486328 397.21657227 21.83691406 396.81298828 C20.66783002 396.03715335 19.4985619 395.26159572 18.32910156 394.48632812 C16.48471845 393.26081762 14.64427159 392.02957623 12.8046875 390.796875 C4.45243035 385.20299443 -3.96297253 379.71918778 -12.4375 374.3125 C-13.38238281 373.70664062 -14.32726563 373.10078125 -15.30078125 372.4765625 C-21.24246584 368.67594805 -27.23728838 364.96829014 -33.25 361.28125 C-37.06675406 358.92384308 -40.84579182 356.51068546 -44.625 354.09375 C-47.71233452 352.13843814 -50.8221572 350.22285172 -53.9375 348.3125 C-59.8120382 344.70861664 -65.63265301 341.0272636 -71.4375 337.3125 C-73.27051071 336.14532651 -75.1038459 334.97866245 -76.9375 333.8125 C-79.63019496 332.09965736 -82.32236514 330.38605353 -85.01171875 328.66796875 C-89.08416609 326.0686638 -93.16211099 323.47969941 -97.265625 320.9296875 C-97.94471924 320.50727783 -98.62381348 320.08486816 -99.32348633 319.6496582 C-100.63214015 318.83655793 -101.94177392 318.02503129 -103.25268555 317.21557617 C-201.75697467 256.00644651 -201.75697467 256.00644651 -218.4375 208.3125 C-218.72367188 207.54421875 -219.00984375 206.7759375 -219.3046875 205.984375 C-229.54159693 177.48988484 -227.60160449 146.72449117 -215.4375 119.3125 C-209.43067497 106.73901385 -202.13112379 95.18419036 -193.4375 84.3125 C-192.99438477 83.7551416 -192.55126953 83.1977832 -192.09472656 82.62353516 C-181.30099835 69.16882574 -169.25633056 57.61343337 -155.4375 47.3125 C-154.01630859 46.23355469 -154.01630859 46.23355469 -152.56640625 45.1328125 C-145.78914483 40.07691646 -138.73421228 35.58007255 -131.4375 31.3125 C-130.3546875 30.67570312 -129.271875 30.03890625 -128.15625 29.3828125 C-106.10759767 17.01768991 -81.94923429 9.43096908 -57.25 4.5625 C-55.73805054 4.26412231 -55.73805054 4.26412231 -54.19555664 3.9597168 C-36.10650608 0.58566088 -18.36499896 -0.0563261 0 0 Z " fill="#96C42A" transform="translate(1081.4375,455.6875)"/>
<path d="M0 0 C-0.0721875 0.55042969 -0.144375 1.10085938 -0.21875 1.66796875 C-4.15201567 36.90347375 1.55394132 70.92567525 22.8125 99.88671875 C25 103 25 103 25 105 C25.66 105 26.32 105 27 105 C28.32691027 106.51516756 29.58483832 108.09085652 30.8125 109.6875 C37.03663617 117.48787844 44.1385001 124.40902546 51.38671875 131.25390625 C53 133 53 133 53 135 C53.54398438 135.22558594 54.08796875 135.45117188 54.6484375 135.68359375 C57.73640119 137.41223787 60.04454974 139.64550144 62.625 142.0625 C66.04209753 145.41533647 66.04209753 145.41533647 70 148 C70 148.66 70 149.32 70 150 C71.05767578 150.34804688 71.05767578 150.34804688 72.13671875 150.703125 C75.57213743 152.25914001 77.96179996 154.28412579 80.8125 156.75 C85.42250191 160.68456178 90.0950708 164.44042281 95 168 C95.85207031 168.62519531 96.70414063 169.25039063 97.58203125 169.89453125 C105.00484451 175.32408556 112.48130676 180.6662896 120.140625 185.7578125 C125.33221704 189.21137311 130.47864646 192.72952623 135.625 196.25 C142.11861202 200.68801756 148.62620126 205.10017987 155.1875 209.4375 C160.28447768 212.80990545 165.25107657 216.3274066 170.16894531 219.95581055 C189.42269902 233.85816306 209.86434004 246.41372408 230 259 C230.9089502 259.56895996 231.81790039 260.13791992 232.75439453 260.72412109 C241.86056614 266.42408568 250.97346506 272.11325206 260.08984375 277.796875 C273.44059208 286.12438811 286.74713467 294.5175312 300 303 C300.70012207 303.44698242 301.40024414 303.89396484 302.12158203 304.35449219 C323.4481764 317.98201209 344.71788959 331.85144676 365 347 C365.59506348 347.43957031 366.19012695 347.87914062 366.80322266 348.33203125 C375.01658959 354.40886714 382.60881771 360.96276165 390 368 C390.79148437 368.72703125 391.58296875 369.4540625 392.3984375 370.203125 C407.70185796 384.70110228 418.66338181 404.62434857 423.52832031 425.05029297 C423.96317447 426.8477802 424.45935123 428.63013667 424.9609375 430.41015625 C429.57179559 448.8324379 428.71919342 469.93143711 423 488 C422.80164551 488.65258789 422.60329102 489.30517578 422.39892578 489.97753906 C408.05137843 535.97643788 368.64976812 573.07402725 327.09375 595.09375 C301.68521879 608.25330936 274.90141527 616.29878855 246.6875 620.6875 C245.92421387 620.80706055 245.16092773 620.92662109 244.37451172 621.04980469 C214.38731017 625.44190171 181.95347028 624.90590069 152 620.75 C151.25532471 620.64757996 150.51064941 620.54515991 149.7434082 620.43963623 C135.12854344 618.37271874 120.48061438 615.46387505 106.4375 610.875 C105.53169189 610.58133545 104.62588379 610.2876709 103.69262695 609.98510742 C83.41450094 603.26029805 64.09403619 594.52899558 45 585 C44.15775879 584.58814453 43.31551758 584.17628906 42.44775391 583.75195312 C24.38759811 574.90766416 7.51126004 563.78683133 -8 551 C-8.62688721 550.49017578 -9.25377441 549.98035156 -9.8996582 549.45507812 C-38.39844106 526.15372788 -57.27898941 496.91745214 -62 460 C-62.18375552 456.65997322 -62.10285375 453.3427468 -62 450 C-61.97164062 448.98550781 -61.94328125 447.97101563 -61.9140625 446.92578125 C-61.02616615 429.40039845 -54.06710636 412.9317023 -41 401 C-20.21569013 384.22330307 6.53852982 377.53870654 33 378 C32.06762259 383.13288184 30.53677682 388.04888615 29.03515625 393.0390625 C20.31604601 424.86651492 27.70778415 457.49050383 43.45703125 485.71484375 C46.83554776 491.53532175 50.66762876 496.84095722 55 502 C55.72960937 502.86882812 56.45921875 503.73765625 57.2109375 504.6328125 C81.86346379 532.91834266 116.95197053 547.45148628 154 550 C183.85950801 551.29194913 211.01964541 546.2841036 234 526 C234.61101562 525.48308594 235.22203125 524.96617187 235.8515625 524.43359375 C248.28227408 513.10972636 257.01792939 494.40370228 258.15234375 477.765625 C259.36496502 448.08065643 247.85475236 426.39371557 228.3125 404.6875 C227.31669922 403.61048828 227.31669922 403.61048828 226.30078125 402.51171875 C224.39369231 400.42978634 222.55261128 398.31420908 220.71484375 396.171875 C217.11491985 392.04811571 213.26273559 388.28114418 209.25 384.5625 C208.5482666 383.90926758 207.8465332 383.25603516 207.12353516 382.58300781 C201.60016153 377.4784742 195.91688113 372.64416168 190 368 C188.97132813 367.17628906 187.94265625 366.35257813 186.8828125 365.50390625 C183.28445944 362.63104895 179.649869 359.8070296 176 357 C175.35724121 356.50467773 174.71448242 356.00935547 174.05224609 355.49902344 C159.9197134 344.68068128 145.07543775 334.92858005 130.23423767 325.12347412 C125.70755734 322.13267996 121.18921739 319.12987004 116.6796875 316.11328125 C116.10654312 315.72994629 115.53339874 315.34661133 114.94288635 314.95166016 C113.81052272 314.19428059 112.67816284 313.43689542 111.54580688 312.67950439 C102.83649605 306.85696526 94.09585985 301.08527365 85.3125 295.375 C50.18015802 272.52603342 14.94100637 249.42504219 -16 221 C-17.68706498 219.49951074 -19.37457288 217.99951935 -21.0625 216.5 C-29.49444095 208.88490333 -36.92142656 200.88613773 -44 192 C-44.680625 191.18660156 -45.36125 190.37320313 -46.0625 189.53515625 C-69.7477223 160.99261297 -80.33985964 125.76173353 -78 89 C-75.36394548 69.06169954 -66.16149354 46.84867277 -50.2421875 33.93359375 C-47.97380934 31.97741398 -45.93373787 29.87071382 -43.87597656 27.69677734 C-37.33387652 20.84608768 -30.2138539 15.6936308 -22 11 C-21.16146484 10.52046875 -20.32292969 10.0409375 -19.45898438 9.546875 C-15.01840534 7.02577206 -10.56062472 4.53567994 -6.078125 2.08984375 C-5.33981445 1.68628662 -4.60150391 1.28272949 -3.84082031 0.86694336 C-2 0 -2 0 0 0 Z " fill="#0085C5" transform="translate(805,632)"/>
<path d="M0 0 C0 0.66 0 1.32 0 2 C-1.8359375 3.19140625 -1.8359375 3.19140625 -4.375 4.5625 C-10.30602308 8.01037905 -15.1207233 12.20300453 -20 17 C-20.65097656 17.63808594 -21.30195312 18.27617188 -21.97265625 18.93359375 C-34.40904875 32.08063725 -37.48188451 49.94481982 -37.2109375 67.40234375 C-36.29072417 94.34414501 -24.41830492 118.88658183 -7 139 C-6.52884766 139.54414551 -6.05769531 140.08829102 -5.57226562 140.64892578 C-0.11198225 146.88951568 5.53627235 152.78444045 12 158 C13.01578125 158.83015625 14.0315625 159.6603125 15.078125 160.515625 C82.02203992 214.57686213 162.70408036 233.87436923 247 233 C244.50932406 235.72806417 242.81363167 237.44005237 239.15625 238.16015625 C238.41463623 238.31250732 237.67302246 238.4648584 236.90893555 238.62182617 C235.71651245 238.83995972 235.71651245 238.83995972 234.5 239.0625 C233.66702393 239.22532471 232.83404785 239.38814941 231.97583008 239.5559082 C225.89995709 240.71589405 219.79954486 241.73783154 213.6875 242.6875 C212.54474609 242.86647827 212.54474609 242.86647827 211.37890625 243.04907227 C181.39063347 247.4424813 148.95465185 246.90606463 119 242.75 C118.25532471 242.64757996 117.51064941 242.54515991 116.7434082 242.43963623 C102.12854344 240.37271874 87.48061438 237.46387505 73.4375 232.875 C72.07878784 232.43450317 72.07878784 232.43450317 70.69262695 231.98510742 C50.41450094 225.26029805 31.09403619 216.52899558 12 207 C11.15775879 206.58814453 10.31551758 206.17628906 9.44775391 205.75195312 C-8.61240189 196.90766416 -25.48873996 185.78683133 -41 173 C-41.62688721 172.49017578 -42.25377441 171.98035156 -42.8996582 171.45507812 C-71.39844106 148.15372788 -90.27898941 118.91745214 -95 82 C-95.18375552 78.65997322 -95.10285375 75.3427468 -95 72 C-94.97164062 70.98550781 -94.94328125 69.97101563 -94.9140625 68.92578125 C-94.02616615 51.40039845 -87.06710636 34.9317023 -74 23 C-53.21569013 6.22330307 -26.46147018 -0.46129346 0 0 Z " fill="#00CCF4" transform="translate(838,1010)"/>
<path d="M0 0 C12.32140514 11.6764831 20.83954269 26.34253418 21.3515625 43.5390625 C21.63848426 63.83519039 17.78379707 81.53500431 3.35961914 96.60180664 C-7.51501184 107.38283604 -20.17228531 112.90612326 -34.8515625 116.5625 C-35.61339844 116.75714844 -36.37523437 116.95179688 -37.16015625 117.15234375 C-58.690563 120.43346524 -78.61392405 115.3270275 -96.72265625 103.72265625 C-106.95835122 96.16963953 -114.43311154 85.41116236 -118.8515625 73.5625 C-119.15707031 72.74652344 -119.46257812 71.93054687 -119.77734375 71.08984375 C-125.76029237 54.10507491 -123.97233568 35.63677361 -116.3515625 19.5625 C-108.03733509 3.13232697 -93.73330678 -8.15623546 -76.44921875 -14.28515625 C-50.75369643 -22.51553528 -20.62116565 -17.62685941 0 0 Z " fill="#FCFCFC" transform="translate(1185.8515625,1420.4375)"/>
<path d="M0 0 C0.20625 1.0725 0.4125 2.145 0.625 3.25 C4.8665832 19.89232299 16.0140509 30.20460071 30 39 C33.62982045 41.10306381 37.31294676 43.08861777 41.0390625 45.015625 C45.29711314 47.86930538 47.39261267 51.17783801 49 56 C49.53422104 61.96889281 49.53306722 66.93593698 46 72 C41.98663673 75.61784341 38.03202037 78.24297548 33.25 80.8125 C18.46925422 89.02986993 6.77364223 99.75132116 1 116 C0.61471396 117.99064456 0.26481932 119.98978065 0 122 C-3.33135861 121.40019167 -6.38215812 120.58683917 -9.54418945 119.38378906 C-10.42621536 119.05046066 -11.30824127 118.71713226 -12.21699524 118.373703 C-13.17276962 118.00803726 -14.12854401 117.64237152 -15.11328125 117.265625 C-16.13129318 116.87985794 -17.14930511 116.49409088 -18.19816589 116.09663391 C-21.57092344 114.81785314 -24.94166595 113.53384147 -28.3125 112.25 C-31.87829929 110.89683333 -35.44465872 109.54515077 -39.01107788 108.19361877 C-41.49790849 107.25118823 -43.98459885 106.30839603 -46.47109985 105.36509705 C-55.4774424 101.94939557 -64.4919011 98.55572951 -73.51171875 95.17578125 C-74.14381067 94.93891224 -74.7759026 94.70204323 -75.42714882 94.45799637 C-80.9867562 92.37488063 -86.54701322 90.29350078 -92.10733032 88.21228027 C-114.91446379 79.67464566 -114.91446379 79.67464566 -124.51513672 75.96020508 C-127.93892357 74.63717956 -131.37430827 73.34763125 -134.8125 72.0625 C-136.15626421 71.55993384 -137.50001374 71.0573284 -138.84375 70.5546875 C-139.85888672 70.17521973 -139.85888672 70.17521973 -140.89453125 69.78808594 C-143.08671177 68.96754342 -145.27785455 68.1442797 -147.46875 67.3203125 C-148.55965942 66.91026978 -148.55965942 66.91026978 -149.67260742 66.49194336 C-151.06874694 65.96709685 -152.46474954 65.44188595 -153.8605957 64.91625977 C-156.56227016 63.9014474 -159.26176703 62.91274432 -162 62 C-162 61.34 -162 60.68 -162 60 C-152.47178147 56.27713073 -142.93433162 52.57982634 -133.375 48.9375 C-132.57876221 48.63392578 -131.78252441 48.33035156 -130.9621582 48.01757812 C-124.46094122 45.54439517 -117.9481668 43.10219838 -111.43457031 40.66186523 C-107.5678838 39.21318289 -103.70206574 37.76219701 -99.83648682 36.31056213 C-96.47342398 35.04768649 -93.11012697 33.7854351 -89.74682617 32.52319336 C-88.04590552 31.88471938 -86.34505868 31.24604873 -84.64428711 30.60717773 C-76.39133304 27.50725667 -68.13736856 24.41158141 -59.85986328 21.37771606 C-49.09025125 17.43035813 -38.3841026 13.32808728 -27.6875 9.1875 C-24.27534974 7.86690391 -20.86249064 6.54816266 -17.44921875 5.23046875 C-16.6867131 4.93464401 -15.92420746 4.63881927 -15.13859558 4.33403015 C-3.91137944 0 -3.91137944 0 0 0 Z " fill="#00B0EA" transform="translate(730,879)"/>
<path d="M0 0 C6.39191864 1.84356478 12.64159151 3.89035714 18.8515625 6.2734375 C20.09855675 6.74680542 20.09855675 6.74680542 21.3707428 7.22973633 C23.17435168 7.91475563 24.97737856 8.60130892 26.77987671 9.28924561 C31.78673925 11.19996175 36.79802492 13.09902933 41.80859375 15 C42.87247818 15.40399017 43.93636261 15.80798035 45.03248596 16.22421265 C56.39627406 20.53662237 67.77962644 24.79646616 79.16326904 29.05612183 C106.47758607 39.27799917 133.74857184 49.6117412 161 60 C160.01 60.33 159.02 60.66 158 61 C158 61.66 158 62.32 158 63 C157.42668945 63.21615967 156.85337891 63.43231934 156.26269531 63.6550293 C153.59099697 64.66374814 150.92050118 65.67561622 148.25 66.6875 C147.34894531 67.02716797 146.44789063 67.36683594 145.51953125 67.71679688 C140.66770185 69.55773924 135.85584021 71.46369317 131.07421875 73.48046875 C124.96729615 76.04462801 118.78383467 78.35510486 112.5625 80.625 C94.42745396 87.2560318 76.39317322 94.16009878 58.36480236 101.0750103 C52.56541908 103.29933962 46.76386419 105.51793942 40.96086597 107.73282051 C37.24922111 109.14990602 33.53906999 110.57070735 29.83154297 111.99853516 C26.15723916 113.41336373 22.4796005 114.81916448 18.79942703 116.21865082 C17.41625917 116.74647203 16.03433467 117.27756402 14.65372849 117.81204987 C12.75211479 118.54769553 10.84564851 119.27076073 8.93896484 119.99316406 C7.86061371 120.40632874 6.78226257 120.81949341 5.67123413 121.24517822 C3 122 3 122 0 121 C-0.95703125 118.59375 -0.95703125 118.59375 -1.8125 115.5 C-3.68469592 109.49900701 -6.19413297 104.96501435 -10 100 C-10.40476562 99.41992188 -10.80953125 98.83984375 -11.2265625 98.2421875 C-17.3087206 90.21970903 -26.95386395 84.54826475 -35.72802734 79.8581543 C-45.75884579 74.48230843 -45.75884579 74.48230843 -48.36328125 69.2734375 C-50.05481769 63.23371843 -50.05082899 57.36436523 -47.5 51.625 C-42.80568197 46.69596607 -37.71542756 43.31341101 -31.6875 40.1875 C-17.06198805 32.41833069 -7.2361867 21.18529077 -1 6 C-0.28763261 2.72671671 -0.28763261 2.72671671 0 0 Z " fill="#72AB23" transform="translate(1358,710)"/>
<path d="M0 0 C12.21 0 24.42 0 37 0 C44.79427311 17.16398441 52.5029757 34.3566474 60.0625 51.625 C65.28850891 63.56212943 70.53293007 75.48930283 75.875 87.375 C76.38514648 88.5105835 76.89529297 89.64616699 77.42089844 90.81616211 C79.2281127 94.83712678 81.0361806 98.85770721 82.84490967 102.87799072 C84.56640323 106.70539841 86.28410691 110.53446853 87.99688721 114.36578369 C88.79389467 116.14594397 89.59489836 117.92431337 90.39599609 119.70263672 C90.8698877 120.76369629 91.3437793 121.82475586 91.83203125 122.91796875 C92.25202393 123.85406982 92.6720166 124.7901709 93.10473633 125.75463867 C94 128 94 128 94 130 C81.13 130 68.26 130 55 130 C53.515 126.24625 52.03 122.4925 50.5 118.625 C50.03013672 117.44244629 49.56027344 116.25989258 49.07617188 115.04150391 C48.71072266 114.11257324 48.34527344 113.18364258 47.96875 112.2265625 C47.59169922 111.27346191 47.21464844 110.32036133 46.82617188 109.33837891 C46 107 46 107 46 105 C18.775 105.495 18.775 105.495 -9 106 C-11.97 113.59 -14.94 121.18 -18 129 C-19 130 -19 130 -22.60180664 130.11352539 C-24.20459856 130.11336625 -25.8073956 130.10767063 -27.41015625 130.09765625 C-28.25219101 130.0962413 -29.09422577 130.09482635 -29.96177673 130.09336853 C-32.66205335 130.08775263 -35.36224828 130.07519748 -38.0625 130.0625 C-39.88867068 130.05748705 -41.71484266 130.05292379 -43.54101562 130.04882812 C-48.02737542 130.03777804 -52.51367384 130.02050279 -57 130 C-51.51456231 117.12655197 -45.95656401 104.28836846 -40.28634644 91.49523926 C-39.07981185 88.77304614 -37.87482594 86.05017164 -36.67016602 83.32714844 C-34.97258305 79.49030382 -33.27441302 75.65371999 -31.57568359 71.81738281 C-27.35987151 62.29628585 -23.1476498 52.77360202 -18.9375 43.25 C-18.33876572 41.89577438 -18.33876572 41.89577438 -17.72793579 40.51419067 C-11.76783641 27.03104 -5.85336404 13.52990703 0 0 Z " fill="#FDFDFD" transform="translate(1462,1405)"/>
<path d="M0 0 C33.66 0 67.32 0 102 0 C102 9.24 102 18.48 102 28 C80.22 28 58.44 28 36 28 C36 34.93 36 41.86 36 49 C55.14 49 74.28 49 94 49 C94 58.24 94 67.48 94 77 C74.86 77 55.72 77 36 77 C36 84.92 36 92.84 36 101 C58.44 101 80.88 101 104 101 C104 110.24 104 119.48 104 129 C69.68 129 35.36 129 0 129 C0 86.43 0 43.86 0 0 Z " fill="#FDFDFD" transform="translate(550,1406)"/>
<path d="M0 0 C0.49757813 0.43183594 0.99515625 0.86367187 1.5078125 1.30859375 C0.88126185 4.97261578 -0.13437143 8.17920576 -1.55859375 11.609375 C-1.96142578 12.58583984 -2.36425781 13.56230469 -2.77929688 14.56835938 C-3.20017578 15.57576172 -3.62105469 16.58316406 -4.0546875 17.62109375 C-4.69180664 19.16120117 -4.69180664 19.16120117 -5.34179688 20.73242188 C-6.38789678 23.25951716 -7.43814666 25.78480269 -8.4921875 28.30859375 C-11.5508672 27.74917169 -14.37868157 27.07748002 -17.26953125 25.93359375 C-17.94822266 25.670625 -18.62691406 25.40765625 -19.32617188 25.13671875 C-20.72513419 24.58596664 -22.12357551 24.03388925 -23.52148438 23.48046875 C-30.99867692 20.58881514 -37.96285681 20.07983759 -45.9296875 19.99609375 C-46.84556641 19.96708984 -47.76144531 19.93808594 -48.70507812 19.90820312 C-54.85329736 19.85082563 -58.48319648 20.67488425 -63.4921875 24.30859375 C-65.13877279 27.60176434 -65.39572942 30.78984964 -64.4921875 34.30859375 C-59.08313727 39.92436551 -50.77595926 40.8553527 -43.4921875 42.24609375 C-27.21636824 45.6092374 -8.37434916 49.59989659 2.5078125 63.30859375 C7.82133979 71.78762666 8.27329673 80.45433202 7.5078125 90.30859375 C6.62760083 93.94009562 5.29009876 97.03274051 3.5078125 100.30859375 C3.08371094 101.08976562 2.65960937 101.8709375 2.22265625 102.67578125 C-4.86853463 114.40883803 -16.93961133 120.40583462 -29.8515625 123.73046875 C-54.6586696 129.16161054 -82.85956747 124.44468085 -104.4921875 111.30859375 C-103.87552703 107.56437302 -102.79653175 104.44837687 -101.20703125 101.0078125 C-100.75908203 100.03134766 -100.31113281 99.05488281 -99.84960938 98.04882812 C-99.38103516 97.04142578 -98.91246094 96.03402344 -98.4296875 94.99609375 C-97.95724609 93.96935547 -97.48480469 92.94261719 -96.99804688 91.88476562 C-95.83416425 89.35714175 -94.66540895 86.83189303 -93.4921875 84.30859375 C-89.72922865 84.97493849 -86.63461516 86.08309343 -83.17749023 87.73413086 C-69.61899063 94.17785626 -51.48199712 99.07971422 -36.7421875 93.99609375 C-33.93771918 92.53992751 -32.39811882 91.72087697 -30.4921875 89.30859375 C-30.1315244 87.25495769 -30.1315244 87.25495769 -30.3046875 85.12109375 C-30.3665625 83.86296875 -30.4284375 82.60484375 -30.4921875 81.30859375 C-40.44781104 75.29427104 -51.76024368 73.10024777 -62.96484375 70.50390625 C-76.4389498 67.34397097 -90.42103235 62.22068447 -98.4921875 50.30859375 C-103.18127145 41.72113412 -104.17012426 30.82037941 -101.73828125 21.3828125 C-96.73231719 8.44583088 -87.92192909 0.17397303 -75.4921875 -5.69140625 C-71.53390992 -7.01728407 -67.60099453 -7.96861205 -63.4921875 -8.69140625 C-61.92597656 -8.96791016 -61.92597656 -8.96791016 -60.328125 -9.25 C-41.23274629 -11.44732973 -16.54173424 -11.2266002 0 0 Z " fill="#FCFCFC" transform="translate(1046.4921875,1412.69140625)"/>
<path d="M0 0 C0.49757813 0.43183594 0.99515625 0.86367187 1.5078125 1.30859375 C0.88126185 4.97261578 -0.13437143 8.17920576 -1.55859375 11.609375 C-1.96142578 12.58583984 -2.36425781 13.56230469 -2.77929688 14.56835938 C-3.20017578 15.57576172 -3.62105469 16.58316406 -4.0546875 17.62109375 C-4.69180664 19.16120117 -4.69180664 19.16120117 -5.34179688 20.73242188 C-6.38789678 23.25951716 -7.43814666 25.78480269 -8.4921875 28.30859375 C-11.5508672 27.74917169 -14.37868157 27.07748002 -17.26953125 25.93359375 C-17.94822266 25.670625 -18.62691406 25.40765625 -19.32617188 25.13671875 C-20.72513419 24.58596664 -22.12357551 24.03388925 -23.52148438 23.48046875 C-30.99867692 20.58881514 -37.96285681 20.07983759 -45.9296875 19.99609375 C-46.84556641 19.96708984 -47.76144531 19.93808594 -48.70507812 19.90820312 C-54.85329736 19.85082563 -58.48319648 20.67488425 -63.4921875 24.30859375 C-65.13877279 27.60176434 -65.39572942 30.78984964 -64.4921875 34.30859375 C-59.08313727 39.92436551 -50.77595926 40.8553527 -43.4921875 42.24609375 C-27.21636824 45.6092374 -8.37434916 49.59989659 2.5078125 63.30859375 C7.82133979 71.78762666 8.27329673 80.45433202 7.5078125 90.30859375 C6.62760083 93.94009562 5.29009876 97.03274051 3.5078125 100.30859375 C3.08371094 101.08976562 2.65960937 101.8709375 2.22265625 102.67578125 C-4.86853463 114.40883803 -16.93961133 120.40583462 -29.8515625 123.73046875 C-54.6586696 129.16161054 -82.85956747 124.44468085 -104.4921875 111.30859375 C-103.87552703 107.56437302 -102.79653175 104.44837687 -101.20703125 101.0078125 C-100.75908203 100.03134766 -100.31113281 99.05488281 -99.84960938 98.04882812 C-99.38103516 97.04142578 -98.91246094 96.03402344 -98.4296875 94.99609375 C-97.95724609 93.96935547 -97.48480469 92.94261719 -96.99804688 91.88476562 C-95.83416425 89.35714175 -94.66540895 86.83189303 -93.4921875 84.30859375 C-89.72922865 84.97493849 -86.63461516 86.08309343 -83.17749023 87.73413086 C-69.61899063 94.17785626 -51.48199712 99.07971422 -36.7421875 93.99609375 C-33.93771918 92.53992751 -32.39811882 91.72087697 -30.4921875 89.30859375 C-30.1315244 87.25495769 -30.1315244 87.25495769 -30.3046875 85.12109375 C-30.3665625 83.86296875 -30.4284375 82.60484375 -30.4921875 81.30859375 C-40.44781104 75.29427104 -51.76024368 73.10024777 -62.96484375 70.50390625 C-76.4389498 67.34397097 -90.42103235 62.22068447 -98.4921875 50.30859375 C-103.18127145 41.72113412 -104.17012426 30.82037941 -101.73828125 21.3828125 C-96.73231719 8.44583088 -87.92192909 0.17397303 -75.4921875 -5.69140625 C-71.53390992 -7.01728407 -67.60099453 -7.96861205 -63.4921875 -8.69140625 C-61.92597656 -8.96791016 -61.92597656 -8.96791016 -60.328125 -9.25 C-41.23274629 -11.44732973 -16.54173424 -11.2266002 0 0 Z " fill="#FCFCFC" transform="translate(527.4921875,1412.69140625)"/>
<path d="M0 0 C1.74534489 1.40996111 3.43414151 2.8605242 5.10449219 4.35839844 C5.62301758 4.82189697 6.14154297 5.28539551 6.67578125 5.76293945 C8.09667969 7.12011719 8.09667969 7.12011719 10.22949219 9.67089844 C10.22949219 13.67089844 10.22949219 13.67089844 8.73242188 15.54614258 C8.04567383 16.17641357 7.35892578 16.80668457 6.65136719 17.45605469 C5.90242188 18.15150391 5.15347656 18.84695313 4.38183594 19.56347656 C3.5890625 20.27955078 2.79628906 20.995625 1.97949219 21.73339844 C1.2021875 22.45333984 0.42488281 23.17328125 -0.37597656 23.91503906 C-3.73607605 27.00805372 -7.07815427 29.97713519 -10.77050781 32.67089844 C-14.74021223 30.86892025 -17.74846096 28.31470043 -21.06347656 25.52246094 C-28.08726105 20.71831397 -34.30864999 19.01467952 -42.77050781 19.17089844 C-44.02734375 19.14769531 -44.02734375 19.14769531 -45.30957031 19.12402344 C-51.59700572 19.16295493 -56.23916009 20.76472806 -61.77050781 23.67089844 C-62.80175781 24.18652344 -63.83300781 24.70214844 -64.89550781 25.23339844 C-71.08352777 30.47976318 -76.12037264 38.65612591 -77.00341797 46.82568359 C-77.73756086 59.49289111 -77.0147667 70.37353962 -68.83300781 80.67089844 C-61.40464865 88.41895914 -52.89100517 90.78416568 -42.39550781 91.17089844 C-29.63061832 90.8495266 -21.55028571 85.58664635 -12.77050781 76.67089844 C-9.6635354 78.05984227 -7.47079865 79.69010533 -5.02050781 82.04199219 C-4.32957031 82.69876953 -3.63863281 83.35554688 -2.92675781 84.03222656 C-1.85941406 85.05993164 -1.85941406 85.05993164 -0.77050781 86.10839844 C0.64441613 87.46308558 2.06102875 88.81601162 3.47949219 90.16699219 C4.10339844 90.76697021 4.72730469 91.36694824 5.37011719 91.98510742 C7.24162065 93.68189463 9.1858056 95.18815182 11.22949219 96.67089844 C8.15424597 105.70931245 -0.44519502 110.6193821 -8.56958008 114.86352539 C-27.62206304 124.16508588 -49.59208903 125.82307282 -69.82128906 119.35986328 C-87.79771265 113.00597208 -101.63568776 100.77270723 -110.00488281 83.68261719 C-117.24978748 67.85073156 -118.20522506 49.77986635 -113.09082031 33.16699219 C-109.14617446 22.72185008 -103.69140412 14.49765846 -95.77050781 6.67089844 C-95.0834375 5.96191406 -94.39636719 5.25292969 -93.68847656 4.52246094 C-70.32703363 -18.10216468 -25.67986907 -19.27760717 0 0 Z " fill="#FCFCFC" transform="translate(1333.7705078125,1415.3291015625)"/>
<path d="M0 0 C12.21 0 24.42 0 37 0 C37 33.33 37 66.66 37 101 C57.13 101 77.26 101 98 101 C98 110.57 98 120.14 98 130 C65.66 130 33.32 130 0 130 C0 87.1 0 44.2 0 0 Z " fill="#FDFDFD" transform="translate(1566,1405)"/>
<path d="M0 0 C12.21 0 24.42 0 37 0 C37 33.33 37 66.66 37 101 C57.13 101 77.26 101 98 101 C98 110.57 98 120.14 98 130 C65.66 130 33.32 130 0 130 C0 87.1 0 44.2 0 0 Z " fill="#FDFDFD" transform="translate(786,1405)"/>
<path d="M0 0 C12.21 0 24.42 0 37 0 C37 33.33 37 66.66 37 101 C57.13 101 77.26 101 98 101 C98 110.57 98 120.14 98 130 C65.66 130 33.32 130 0 130 C0 87.1 0 44.2 0 0 Z " fill="#FDFDFD" transform="translate(674,1405)"/>
<path d="M0 0 C0.66 0.33 1.32 0.66 2 1 C1.67 1.33 1.34 1.66 1 2 C2.0252157 1.99907821 3.0504314 1.99815641 4.10671425 1.99720669 C29.0442782 1.97501414 53.98184087 1.95857755 78.91941261 1.94818783 C90.97899349 1.94302998 103.03856784 1.935997 115.09814453 1.92456055 C125.60838906 1.91459812 136.11862887 1.90814285 146.628878 1.90591151 C152.19473631 1.90460706 157.76058111 1.90153793 163.32643509 1.89426994 C168.56465017 1.88748518 173.80284616 1.88538807 179.04106522 1.88689232 C180.96393945 1.8866171 182.88681432 1.88462654 184.80968475 1.88079453 C187.43504645 1.87581895 190.0603361 1.87701602 192.68569946 1.87974548 C193.82676838 1.87537622 193.82676838 1.87537622 194.99088919 1.87091869 C199.09934838 1.88246237 202.96927528 2.19968439 207 3 C206.80692566 8.5026186 206.13895328 12.09212605 202.32421875 16.15625 C198.55001749 19.15023823 194.3343295 21.31206645 190.10498047 23.59570312 C175.67490841 31.43589856 164.57312794 42.31562565 159 58 C158.61471396 59.99064456 158.26481932 61.98978065 158 64 C154.66864139 63.40019167 151.61784188 62.58683917 148.45581055 61.38378906 C147.57378464 61.05046066 146.69175873 60.71713226 145.78300476 60.373703 C144.82723038 60.00803726 143.87145599 59.64237152 142.88671875 59.265625 C141.86870682 58.87985794 140.85069489 58.49409088 139.80183411 58.09663391 C136.42907656 56.81785314 133.05833405 55.53384147 129.6875 54.25 C126.12170071 52.89683333 122.55534128 51.54515077 118.98892212 50.19361877 C116.50209151 49.25118823 114.01540115 48.30839603 111.52890015 47.36509705 C102.5225576 43.94939557 93.5080989 40.55572951 84.48828125 37.17578125 C83.85618933 36.93891224 83.2240974 36.70204323 82.57285118 36.45799637 C77.0132438 34.37488063 71.45298678 32.29350078 65.89266968 30.21228027 C43.08553621 21.67464566 43.08553621 21.67464566 33.48486328 17.96020508 C30.06107643 16.63717956 26.62569173 15.34763125 23.1875 14.0625 C21.84373579 13.55993384 20.49998626 13.0573284 19.15625 12.5546875 C18.47949219 12.30170898 17.80273438 12.04873047 17.10546875 11.78808594 C14.91328823 10.96754342 12.72214545 10.1442797 10.53125 9.3203125 C9.80397705 9.04695068 9.0767041 8.77358887 8.32739258 8.49194336 C6.93125306 7.96709685 5.53525046 7.44188595 4.1394043 6.91625977 C1.43772984 5.9014474 -1.26176703 4.91274432 -4 4 C-4 3.34 -4 2.68 -4 2 C-2.125 0.9375 -2.125 0.9375 0 0 Z " fill="#0079B6" transform="translate(572,937)"/>
<path d="M0 0 C6.39191864 1.84356478 12.64159151 3.89035714 18.8515625 6.2734375 C20.09855675 6.74680542 20.09855675 6.74680542 21.3707428 7.22973633 C23.17435168 7.91475563 24.97737856 8.60130892 26.77987671 9.28924561 C31.78673925 11.19996175 36.79802492 13.09902933 41.80859375 15 C42.87247818 15.40399017 43.93636261 15.80798035 45.03248596 16.22421265 C56.39627406 20.53662237 67.77962644 24.79646616 79.16326904 29.05612183 C106.47758607 39.27799917 133.74857184 49.6117412 161 60 C161 60.33 161 60.66 161 61 C91.7 61 22.4 61 -49 61 C-49 54.67460606 -48.84445985 53.61335182 -45 49 C-40.94868077 45.33951392 -36.51872345 42.69283444 -31.6875 40.1875 C-17.06198805 32.41833069 -7.2361867 21.18529077 -1 6 C-0.28763261 2.72671671 -0.28763261 2.72671671 0 0 Z " fill="#CBDD22" transform="translate(1358,710)"/>
<path d="M0 0 C12.21 0 24.42 0 37 0 C37 42.9 37 85.8 37 130 C24.79 130 12.58 130 0 130 C0 87.1 0 44.2 0 0 Z " fill="#FCFCFC" transform="translate(1359,1405)"/>
<path d="M0 0 C7.45430031 6.11228225 11.31891074 12.95154817 13.57421875 22.26953125 C14.67410779 35.48248399 12.69450618 46.6024264 4.57421875 57.26953125 C-2.6409669 64.64294466 -11.94134942 67.46594471 -22.05078125 67.76953125 C-28.37619484 67.58972254 -33.03830615 66.55429982 -38.42578125 63.26953125 C-39.47765625 62.67140625 -40.52953125 62.07328125 -41.61328125 61.45703125 C-48.78955003 55.87548886 -53.18998645 49.14611232 -55.42578125 40.26953125 C-56.95151503 27.92003063 -55.78044693 16.58575245 -48.86328125 6.01953125 C-37.38002276 -8.18807173 -14.62769223 -10.43489156 0 0 Z " fill="#030303" transform="translate(1156.42578125,1439.73046875)"/>
<path d="M0 0 C2.29328808 3.43993212 3.73278068 7.02647333 5.2578125 10.84375 C5.56572723 11.60925171 5.87364197 12.37475342 6.19088745 13.16345215 C6.83979134 14.77997563 7.48689519 16.39722269 8.13232422 18.01513672 C9.12226287 20.49314843 10.12133764 22.96734181 11.12109375 25.44140625 C11.75055904 27.01279701 12.37948372 28.58440445 13.0078125 30.15625 C13.3077713 30.89693726 13.6077301 31.63762451 13.91677856 32.40075684 C15.11083494 35.41305838 16 37.72863953 16 41 C5.44 41 -5.12 41 -16 41 C-14.14252791 35.42758373 -12.29614142 30.05510778 -10.1171875 24.62890625 C-9.85745148 23.98050278 -9.59771545 23.3320993 -9.33010864 22.66404724 C-8.78851349 21.31338304 -8.24569145 19.96321018 -7.70166016 18.61352539 C-6.86737135 16.54357256 -6.03689438 14.47212124 -5.20703125 12.40039062 C-1.16449458 2.32898915 -1.16449458 2.32898915 0 0 Z " fill="#080808" transform="translate(1480,1442)"/>
</svg>
